<?xml version="1.0" encoding="utf-8"?>
<!-- Generator: Adobe Illustrator 24.3.0, SVG Export Plug-In . SVG Version: 6.00 Build 0)  -->
<svg version="1.1" id="Layer_1" xmlns="http://www.w3.org/2000/svg" xmlns:xlink="http://www.w3.org/1999/xlink" x="0px" y="0px"
	 viewBox="0 0 711 184" style="enable-background:new 0 0 711 184;" xml:space="preserve">
<style type="text/css">
	.st0{fill:#FFFFFF;}
	.st1{fill:url(#SVGID_1_);}
	.st2{fill:url(#SVGID_2_);}
	.st3{fill:url(#SVGID_3_);}
	.st4{fill:url(#SVGID_4_);}
	.st5{fill:url(#SVGID_5_);}
	.st6{fill:#E91E25;}
	.st7{fill:url(#SVGID_6_);}
	.st8{fill:url(#SVGID_7_);}
	.st9{fill:url(#SVGID_8_);}
	.st10{fill:url(#SVGID_9_);}
	.st11{fill:url(#SVGID_10_);}
	.st12{fill:url(#SVGID_11_);}
	.st13{fill:url(#SVGID_12_);}
	.st14{fill:url(#SVGID_13_);}
	.st15{fill:url(#SVGID_14_);}
	.st16{fill:url(#SVGID_15_);}
	.st17{fill:url(#SVGID_16_);}
	.st18{fill:url(#SVGID_17_);}
	.st19{fill:url(#SVGID_18_);}
	.st20{fill:url(#SVGID_19_);}
	.st21{fill:url(#SVGID_20_);}
	.st22{opacity:0.6;}
	.st23{fill:url(#SVGID_21_);}
</style>
<g>
	<path class="st0" d="M62,33.9h24.5L102,13.1c2-2.7,5.1-4.2,8.4-4.2h28.1l-11.4,19.8c-1.9,3.3-5.4,5.3-9.2,5.3H91.2l-12,16.8
		c-2.7,3.8-7.1,6.1-11.7,6.1H43l11.6-18.8C56.2,35.5,59,33.9,62,33.9z"/>
	<path class="st0" d="M82.5,56.9h28.2L99.1,77c-1.3,2.2-3.7,3.6-6.2,3.6H62.2L50.2,99c-2.3,3.6-6.3,5.7-10.6,5.7H13.1l13-19.4
		c1.9-2.8,5.1-4.5,8.5-4.5h24.7l13.5-18.9C75,58.8,78.6,56.9,82.5,56.9z"/>
	<g>
		
			<linearGradient id="SVGID_1_" gradientUnits="userSpaceOnUse" x1="257.8135" y1="167.0718" x2="271.665" y2="70.3769" gradientTransform="matrix(1 0 0 -1 0 178.7244)">
			<stop  offset="0" style="stop-color:#ED1E24"/>
			<stop  offset="0.9946" style="stop-color:#B92025"/>
		</linearGradient>
		<path class="st1" d="M328.7,16.1c-1,0.2-48.6,0.1-100.3,0c-13.8,0-25.1,11.2-25.1,25l0,0c0,13.8,11.2,25,25,25h58.9
			c5.5,0,10,4.5,10,10l0,0c0,5.5-4.5,10-10,10h-70.8l-15.5,18.6h94.2c14.2,0,25.7-11.5,25.7-25.7l0,0c0-14.2-11.5-25.7-25.7-25.7
			h-60.7c-5.3,0-9.6-4.3-9.6-9.6l0,0c0-5.3,4.3-9.6,9.6-9.6h80.4L328.7,16.1z"/>
		
			<linearGradient id="SVGID_2_" gradientUnits="userSpaceOnUse" x1="413.3878" y1="171.7381" x2="427.2554" y2="74.9312" gradientTransform="matrix(1 0 0 -1 0 178.7244)">
			<stop  offset="0" style="stop-color:#ED1E24"/>
			<stop  offset="0.9946" style="stop-color:#B92025"/>
		</linearGradient>
		<path class="st2" d="M518.1,16.1c-1,0.2-115,0.1-166.7,0c-13.8,0-25.1,11.2-25.1,25l0,0c0,13.8,11.2,25,25,25h58.9
			c5.5,0,10,4.5,10,10l0,0c0,5.5-4.5,10-10,10h-70.8L324,104.8h94.2c14.2,0,25.7-11.5,25.7-25.7l0,0c0-14.2-11.5-25.7-25.7-25.7
			h-60.7c-5.3,0-9.6-4.3-9.6-9.6l0,0c0-5.3,4.3-9.6,9.6-9.6h146.8L518.1,16.1z"/>
		
			<linearGradient id="SVGID_3_" gradientUnits="userSpaceOnUse" x1="162.0803" y1="166.2157" x2="175.1235" y2="75.1637" gradientTransform="matrix(1 0 0 -1 0 178.7244)">
			<stop  offset="0" style="stop-color:#ED1E24"/>
			<stop  offset="0.9946" style="stop-color:#B92025"/>
		</linearGradient>
		<path class="st3" d="M136.9,46.6l50.9-37.8H221l-61.9,48.1l7.9,47.8h-24.1c-5.9,0-11.1-4.1-12.5-9.8l-6.3-26.1h-13.4l11.5-22.3
			L136.9,46.6z"/>
		
			<linearGradient id="SVGID_4_" gradientUnits="userSpaceOnUse" x1="100.5187" y1="142.6932" x2="103.1545" y2="124.2938" gradientTransform="matrix(1 0 0 -1 0 178.7244)">
			<stop  offset="0" style="stop-color:#ED1E24"/>
			<stop  offset="0.9946" style="stop-color:#B92025"/>
		</linearGradient>
		<path class="st4" d="M97.4,36.5h24L114,48.6c-2.1,3.4-5.8,5.5-9.8,5.5H82.3L89.8,41C91.4,38.2,94.3,36.5,97.4,36.5z"/>
		
			<linearGradient id="SVGID_5_" gradientUnits="userSpaceOnUse" x1="71.7817" y1="95.3481" x2="74.9124" y2="73.4933" gradientTransform="matrix(1 0 0 -1 0 178.7244)">
			<stop  offset="0" style="stop-color:#ED1E24"/>
			<stop  offset="0.9946" style="stop-color:#B92025"/>
		</linearGradient>
		<path class="st5" d="M52.5,104.8l10-17c1.5-2.5,4.1-4,7-4h24.7l-9.3,16.6c-1.5,2.7-4.4,4.4-7.5,4.4H52.5z"/>
	</g>
	<path class="st6" d="M291.5,34.2"/>
	
		<linearGradient id="SVGID_6_" gradientUnits="userSpaceOnUse" x1="567.6863" y1="180.7372" x2="596.3594" y2="-19.4252" gradientTransform="matrix(1 0 0 -1 0 178.7244)">
		<stop  offset="8.065352e-02" style="stop-color:#FFFFFF"/>
		<stop  offset="0.677" style="stop-color:#000000"/>
	</linearGradient>
	<path class="st7" d="M517.4,16.7c0-0.4,0.4-0.8,0.8-0.7c3.6,0.4,18.6,2.4,29.3,7c11.7,5.1,35,16.3,37,17.2c0.1,0,0.2,0.1,0.3,0.1
		c3.4,0,61.8,0.7,85.9,10.3c18.4,7.9,29.2,11.7,29.5,15.7c0,1.4-1.3,2.9-2.3,3.8c-0.5,0.4-1.2,0.1-1.3-0.5l-0.1-0.7
		c0-0.3,0.1-0.5,0.3-0.7c0.6-0.4,1.4-1.3,0-2.5c-2.2-1.6-11.4-8.9-21.9-8c-0.1,0-0.3,0.1-0.4,0.1c-0.5,0.4-1.6,1.6,1.8,4.3
		c3.7,3,10.5,8.6,11.7,9.6c0.1,0.1,0.3,0.2,0.5,0.2h9.6c0.4,0,0.7,0.3,0.8,0.7v0.8c0,0.4-0.3,0.8-0.8,0.8l0,0
		c-0.4,0-0.8,0.4-0.8,0.8l0.2,4.8c0,0.4-0.3,0.8-0.8,0.8H689c-0.3,0-0.5,0.2-0.7,0.4l-2.3,4.5c-0.4,0.8,0.8,1.5,1.3,0.8l2.3-3.4
		c0.1-0.2,0.4-0.3,0.6-0.3h5.7c0.4,0,0.8,0.3,0.8,0.8v9h-1.3v-4.7c0-0.8-1-1-1.4-0.4l-4.9,8.2c-0.3,0.5,0.1,1.1,0.6,1.1h8.4
		c0.4,0,0.8,0.3,0.8,0.8v3.5c0,0.4-0.3,0.7-0.7,0.7l-23,3.3c-0.5,0.1-1-0.4-0.8-0.9c1-4.7,4.3-23.8-9.1-36.3
		c-5.4-5-17.3-15.3-36.5-6c-4.1,2-7.8,4.7-10.8,8.1c-4.8,5.7-8.8,14.8-7.5,32.7c0,0.4-0.3,0.8-0.7,0.8
		c-13.7-0.1-138.6-1.6-149.4-1.7c-0.4,0-0.7-0.3-0.7-0.8v-2.1c0-0.4,0.3-0.8,0.8-0.8h80c0.4,0,0.8-0.3,0.8-0.8v-3.6
		c0-0.4-0.3-0.8-0.8-0.8H518c-0.4,0-0.8-0.3-0.8-0.8v-1.2c0-0.4-0.3-0.8-0.8-0.8h-19.7c-0.4,0-0.8-0.3-0.8-0.8v-3.2
		c0-0.4,0.3-0.8,0.8-0.8h28c0.4,0,0.8-0.3,0.8-0.8v-2.2c0-0.4-0.3-0.8-0.8-0.8h-6.9c-0.4,0-0.8-0.3-0.8-0.8v-2.4
		c0-0.4-0.3-0.8-0.8-0.8H472c-0.4,0-0.8-0.3-0.8-0.8v-2.6c0-0.4,0.3-0.8,0.8-0.8h58.7c0.4,0,0.8-0.3,0.8-0.8v-2.6
		c0-0.4-0.3-0.8-0.8-0.8h-12.5c-0.4,0-0.8-0.3-0.8-0.8v-8.7c0-0.4-0.3-0.8-0.8-0.8H487c-0.4,0-0.8-0.3-0.8-0.8v-3
		c0-0.4,0.3-0.8,0.8-0.8h52c0.4,0,0.8-0.3,0.8-0.8V51c0-0.4-0.3-0.8-0.8-0.8h-21c-0.4,0-0.8-0.3-0.8-0.8v-6.7c0-0.4,0.4-0.8,0.8-0.8
		l56.2,1.5c0.8,0,1.1-1,0.4-1.4c-8.4-4.9-36.4-20.5-56.6-20.4c-0.4,0-0.8-0.3-0.8-0.8L517.4,16.7z"/>
	<g>
		<g>
			<g>
				
					<linearGradient id="SVGID_7_" gradientUnits="userSpaceOnUse" x1="646.2717" y1="116.8518" x2="639.9384" y2="62.5184" gradientTransform="matrix(1 0 0 -1 0 178.7244)">
					<stop  offset="8.065352e-02" style="stop-color:#FFFFFF"/>
					<stop  offset="1" style="stop-color:#000000"/>
				</linearGradient>
				<path class="st8" d="M643.2,111.9c-13.1,0-23.7-10.6-23.7-23.7s10.6-23.7,23.7-23.7c13.1,0,23.7,10.6,23.7,23.7
					S656.3,111.9,643.2,111.9z M643.2,66.1c-12.2,0-22.1,9.9-22.1,22.1s9.9,22.1,22.1,22.1c12.2,0,22.1-9.9,22.1-22.1
					S655.4,66.1,643.2,66.1z"/>
			</g>
			<g>
				
					<linearGradient id="SVGID_8_" gradientUnits="userSpaceOnUse" x1="646.1567" y1="116.8652" x2="639.8232" y2="62.5318" gradientTransform="matrix(1 0 0 -1 0 178.7244)">
					<stop  offset="8.065352e-02" style="stop-color:#FFFFFF"/>
					<stop  offset="1" style="stop-color:#000000"/>
				</linearGradient>
				<rect x="620.3" y="86.4" class="st9" width="45.8" height="1.6"/>
			</g>
			<g>
				
					<linearGradient id="SVGID_9_" gradientUnits="userSpaceOnUse" x1="645.3148" y1="116.9632" x2="638.9814" y2="62.63" gradientTransform="matrix(1 0 0 -1 0 178.7244)">
					<stop  offset="8.065352e-02" style="stop-color:#FFFFFF"/>
					<stop  offset="1" style="stop-color:#000000"/>
				</linearGradient>
				<polygon class="st10" points="624.6,101.6 623.7,100.3 660,73.7 660.9,74.9 				"/>
			</g>
			<g>
				
					<linearGradient id="SVGID_10_" gradientUnits="userSpaceOnUse" x1="646.6113" y1="116.8122" x2="640.2779" y2="62.4788" gradientTransform="matrix(1 0 0 -1 0 178.7244)">
					<stop  offset="8.065352e-02" style="stop-color:#FFFFFF"/>
					<stop  offset="1" style="stop-color:#000000"/>
				</linearGradient>
				<polygon class="st11" points="662,102.2 624.2,75.4 625.1,74.1 662.9,100.9 				"/>
			</g>
			<g>
				
					<linearGradient id="SVGID_11_" gradientUnits="userSpaceOnUse" x1="645.8655" y1="116.8991" x2="639.5322" y2="62.5658" gradientTransform="matrix(1 0 0 -1 0 178.7244)">
					<stop  offset="8.065352e-02" style="stop-color:#FFFFFF"/>
					<stop  offset="1" style="stop-color:#000000"/>
				</linearGradient>
				<polygon class="st12" points="636.3,110.1 634.8,109.6 649.3,66.1 650.8,66.6 				"/>
			</g>
			<g>
				
					<linearGradient id="SVGID_12_" gradientUnits="userSpaceOnUse" x1="645.9287" y1="116.8917" x2="639.5955" y2="62.5584" gradientTransform="matrix(1 0 0 -1 0 178.7244)">
					<stop  offset="8.065352e-02" style="stop-color:#FFFFFF"/>
					<stop  offset="1" style="stop-color:#000000"/>
				</linearGradient>
				<polygon class="st13" points="649.3,111 634.8,66.8 636.3,66.4 650.8,110.5 				"/>
			</g>
			
				<linearGradient id="SVGID_13_" gradientUnits="userSpaceOnUse" x1="645.3262" y1="116.962" x2="638.9929" y2="62.6287" gradientTransform="matrix(1 0 0 -1 0 178.7244)">
				<stop  offset="8.065352e-02" style="stop-color:#FFFFFF"/>
				<stop  offset="1" style="stop-color:#000000"/>
			</linearGradient>
			<circle class="st14" cx="642.3" cy="87.7" r="8"/>
		</g>
		<g>
			<g>
				
					<linearGradient id="SVGID_14_" gradientUnits="userSpaceOnUse" x1="646.2717" y1="116.8518" x2="639.9384" y2="62.5184" gradientTransform="matrix(1 0 0 -1 0 178.7244)">
					<stop  offset="8.065352e-02" style="stop-color:#FFFFFF"/>
					<stop  offset="1" style="stop-color:#000000"/>
				</linearGradient>
				<path class="st15" d="M643.2,111.9c-13.1,0-23.7-10.6-23.7-23.7s10.6-23.7,23.7-23.7c13.1,0,23.7,10.6,23.7,23.7
					S656.3,111.9,643.2,111.9z M643.2,66.1c-12.2,0-22.1,9.9-22.1,22.1s9.9,22.1,22.1,22.1c12.2,0,22.1-9.9,22.1-22.1
					S655.4,66.1,643.2,66.1z"/>
			</g>
			<g>
				
					<linearGradient id="SVGID_15_" gradientUnits="userSpaceOnUse" x1="646.1567" y1="116.8652" x2="639.8232" y2="62.5318" gradientTransform="matrix(1 0 0 -1 0 178.7244)">
					<stop  offset="8.065352e-02" style="stop-color:#FFFFFF"/>
					<stop  offset="1" style="stop-color:#000000"/>
				</linearGradient>
				<rect x="620.3" y="86.4" class="st16" width="45.8" height="1.6"/>
			</g>
			<g>
				
					<linearGradient id="SVGID_16_" gradientUnits="userSpaceOnUse" x1="645.3148" y1="116.9632" x2="638.9814" y2="62.63" gradientTransform="matrix(1 0 0 -1 0 178.7244)">
					<stop  offset="8.065352e-02" style="stop-color:#FFFFFF"/>
					<stop  offset="1" style="stop-color:#000000"/>
				</linearGradient>
				<polygon class="st17" points="624.6,101.6 623.7,100.3 660,73.7 660.9,74.9 				"/>
			</g>
			<g>
				
					<linearGradient id="SVGID_17_" gradientUnits="userSpaceOnUse" x1="646.6113" y1="116.8122" x2="640.2779" y2="62.4788" gradientTransform="matrix(1 0 0 -1 0 178.7244)">
					<stop  offset="8.065352e-02" style="stop-color:#FFFFFF"/>
					<stop  offset="1" style="stop-color:#000000"/>
				</linearGradient>
				<polygon class="st18" points="662,102.2 624.2,75.4 625.1,74.1 662.9,100.9 				"/>
			</g>
			<g>
				
					<linearGradient id="SVGID_18_" gradientUnits="userSpaceOnUse" x1="645.8655" y1="116.8991" x2="639.5322" y2="62.5658" gradientTransform="matrix(1 0 0 -1 0 178.7244)">
					<stop  offset="8.065352e-02" style="stop-color:#FFFFFF"/>
					<stop  offset="1" style="stop-color:#000000"/>
				</linearGradient>
				<polygon class="st19" points="636.3,110.1 634.8,109.6 649.3,66.1 650.8,66.6 				"/>
			</g>
			<g>
				
					<linearGradient id="SVGID_19_" gradientUnits="userSpaceOnUse" x1="645.9287" y1="116.8917" x2="639.5955" y2="62.5584" gradientTransform="matrix(1 0 0 -1 0 178.7244)">
					<stop  offset="8.065352e-02" style="stop-color:#FFFFFF"/>
					<stop  offset="1" style="stop-color:#000000"/>
				</linearGradient>
				<polygon class="st20" points="649.3,111 634.8,66.8 636.3,66.4 650.8,110.5 				"/>
			</g>
			
				<linearGradient id="SVGID_20_" gradientUnits="userSpaceOnUse" x1="645.3262" y1="116.962" x2="638.9929" y2="62.6287" gradientTransform="matrix(1 0 0 -1 0 178.7244)">
				<stop  offset="8.065352e-02" style="stop-color:#FFFFFF"/>
				<stop  offset="1" style="stop-color:#000000"/>
			</linearGradient>
			<circle class="st21" cx="642.3" cy="87.7" r="8"/>
		</g>
	</g>
	<g class="st22">
		
			<image style="overflow:visible;enable-background:new    ;" width="546" height="308" xlink:href="2F53299B.png"  transform="matrix(0.3741 0 0 0.3741 470.8843 7.8617)">
		</image>
	</g>
	
		<image style="overflow:visible;enable-background:new    ;" width="504" height="308" xlink:href="2F532999.png"  transform="matrix(0.3741 0 0 0.3741 476.2922 28.2954)">
	</image>
	<g>
		
			<linearGradient id="SVGID_21_" gradientUnits="userSpaceOnUse" x1="328.7" y1="109.7209" x2="328.7" y2="-25.1796" gradientTransform="matrix(1 0 0 -1 0 178.7244)">
			<stop  offset="0.1633" style="stop-color:#FFFFFF"/>
			<stop  offset="0.932" style="stop-color:#797A7B"/>
		</linearGradient>
		<polygon class="st23" points="647.8,124.9 638.6,170.8 9.6,170.8 9.6,164 217.4,164 219.3,156.1 128.4,156.1 128.4,151.8 
			189,151.8 190.8,144 79.1,144 79.1,137 226.8,137 228.7,129.2 142.6,129.2 142.6,124.9 		"/>
		<g>
			<path d="M304.5,164c-2.2,0-4.3-0.5-6.1-1.4c-1.8-0.9-3.4-2.1-4.7-3.6c-1.3-1.5-2.3-3.2-3.1-5.2c-0.7-1.9-1.1-3.9-1.1-6
				s0.4-4.2,1.1-6.1c0.8-1.9,1.8-3.7,3.2-5.2c1.3-1.5,2.9-2.7,4.8-3.6c1.8-0.9,3.8-1.3,6-1.3s4.3,0.5,6.1,1.4
				c1.8,0.9,3.4,2.2,4.7,3.7c1.3,1.5,2.3,3.3,3,5.2c0.7,1.9,1.1,3.9,1.1,5.9c0,2.1-0.4,4.2-1.1,6.1c-0.8,1.9-1.8,3.7-3.1,5.1
				c-1.3,1.5-2.9,2.7-4.8,3.5S306.7,164,304.5,164z M293.6,147.9c0,1.6,0.3,3.2,0.8,4.7s1.3,2.8,2.2,4s2.1,2.1,3.5,2.8
				c1.3,0.7,2.8,1,4.5,1s3.2-0.4,4.6-1.1c1.3-0.7,2.5-1.7,3.4-2.9c0.9-1.2,1.7-2.5,2.2-4s0.7-3,0.7-4.5c0-1.6-0.3-3.2-0.8-4.7
				s-1.3-2.8-2.2-4c-1-1.2-2.1-2.1-3.5-2.8c-1.3-0.7-2.8-1-4.4-1c-1.7,0-3.2,0.4-4.6,1.1c-1.3,0.7-2.5,1.7-3.4,2.8
				c-0.9,1.2-1.7,2.5-2.2,4C293.9,144.8,293.6,146.3,293.6,147.9z"/>
			<path d="M358.3,135.6h-11v28.3h-4v-28.3h-11V132h26V135.6z"/>
			<path d="M385.9,164c-2.2,0-4.3-0.5-6.1-1.4c-1.8-0.9-3.4-2.1-4.7-3.6c-1.3-1.5-2.3-3.2-3.1-5.2c-0.7-1.9-1.1-3.9-1.1-6
				s0.4-4.2,1.1-6.1c0.8-1.9,1.8-3.7,3.2-5.2c1.3-1.5,2.9-2.7,4.8-3.6c1.8-0.9,3.8-1.3,6-1.3s4.3,0.5,6.1,1.4
				c1.8,0.9,3.4,2.2,4.7,3.7c1.3,1.5,2.3,3.3,3,5.2c0.7,1.9,1.1,3.9,1.1,5.9c0,2.1-0.4,4.2-1.1,6.1c-0.8,1.9-1.8,3.7-3.1,5.1
				c-1.3,1.5-2.9,2.7-4.8,3.5C390.1,163.6,388.1,164,385.9,164z M375,147.9c0,1.6,0.3,3.2,0.8,4.7s1.3,2.8,2.2,4s2.1,2.1,3.5,2.8
				c1.3,0.7,2.8,1,4.5,1s3.2-0.4,4.6-1.1c1.3-0.7,2.5-1.7,3.4-2.9c0.9-1.2,1.7-2.5,2.2-4s0.7-3,0.7-4.5c0-1.6-0.3-3.2-0.8-4.7
				s-1.3-2.8-2.2-4c-1-1.2-2.1-2.1-3.5-2.8c-1.3-0.7-2.8-1-4.4-1c-1.7,0-3.2,0.4-4.6,1.1c-1.3,0.7-2.5,1.7-3.4,2.8
				c-0.9,1.2-1.7,2.5-2.2,4C375.3,144.8,375,146.3,375,147.9z"/>
			<path d="M445.4,163.8v-24.6l-10.6,18.9h-2.3l-10.6-18.9v24.6h-4V132h4.3l11.5,20.7l11.6-20.7h4.2v31.8H445.4z"/>
			<path d="M481.4,164c-2.2,0-4.3-0.5-6.1-1.4s-3.4-2.1-4.7-3.6s-2.3-3.2-3.1-5.2c-0.7-1.9-1.1-3.9-1.1-6s0.4-4.2,1.1-6.1
				c0.8-1.9,1.8-3.7,3.2-5.2c1.3-1.5,2.9-2.7,4.8-3.6c1.8-0.9,3.8-1.3,6-1.3s4.3,0.5,6.1,1.4s3.4,2.2,4.7,3.7s2.3,3.3,3,5.2
				c0.7,1.9,1.1,3.9,1.1,5.9c0,2.1-0.4,4.2-1.1,6.1c-0.8,1.9-1.8,3.7-3.1,5.1c-1.3,1.5-2.9,2.7-4.8,3.5
				C485.5,163.6,483.5,164,481.4,164z M470.5,147.9c0,1.6,0.3,3.2,0.8,4.7s1.3,2.8,2.2,4c1,1.2,2.1,2.1,3.5,2.8c1.3,0.7,2.8,1,4.5,1
				s3.2-0.4,4.6-1.1c1.3-0.7,2.5-1.7,3.4-2.9c0.9-1.2,1.7-2.5,2.2-4s0.7-3,0.7-4.5c0-1.6-0.3-3.2-0.8-4.7s-1.3-2.8-2.2-4
				c-1-1.2-2.1-2.1-3.5-2.8c-1.3-0.7-2.8-1-4.4-1c-1.7,0-3.2,0.4-4.6,1.1c-1.3,0.7-2.5,1.7-3.4,2.8c-0.9,1.2-1.7,2.5-2.2,4
				C470.7,144.8,470.5,146.3,470.5,147.9z"/>
			<path d="M537.7,155.6c0,1.2-0.2,2.3-0.7,3.4c-0.5,1-1.2,1.9-2,2.6c-0.9,0.7-1.8,1.3-3,1.7c-1.1,0.4-2.3,0.6-3.6,0.6h-15.1v-31.8
				h15.8c1.1,0,2.1,0.2,3,0.7s1.7,1.1,2.3,1.9s1.1,1.6,1.5,2.6c0.3,1,0.5,2,0.5,2.9c0,1.6-0.4,3.1-1.2,4.4s-1.9,2.3-3.4,3
				c1.8,0.5,3.3,1.5,4.3,3C537.2,151.9,537.7,153.6,537.7,155.6z M517.3,135.5v10.6h10.1c0.7,0,1.4-0.1,2-0.4s1.1-0.7,1.5-1.1
				c0.4-0.5,0.8-1,1-1.7c0.3-0.6,0.4-1.3,0.4-2s-0.1-1.4-0.4-2.1c-0.2-0.7-0.6-1.2-1-1.7s-0.9-0.9-1.5-1.1c-0.6-0.3-1.2-0.4-1.9-0.4
				L517.3,135.5L517.3,135.5z M533.7,154.9c0-0.7-0.1-1.4-0.4-2.1c-0.3-0.7-0.6-1.3-1-1.8s-0.9-0.9-1.5-1.2c-0.6-0.3-1.3-0.4-2-0.4
				h-11.4v10.9h11.1c0.7,0,1.4-0.2,2.1-0.4c0.6-0.3,1.2-0.7,1.7-1.2s0.9-1.1,1.1-1.7C533.5,156.3,533.7,155.6,533.7,154.9z"/>
			<path d="M554.7,163.8V132h4v31.8H554.7z"/>
			<path d="M577.6,163.8V132h4v28.3h17.8v3.6h-21.8V163.8z"/>
		</g>
	</g>
</g>
</svg>
